<svg width="72" height="72" fill="none" xmlns="http://www.w3.org/2000/svg"><circle cx="36" cy="36" r="36" fill="url(#a)"/><path fill-rule="evenodd" clip-rule="evenodd" d="M55.4 35.4H46v-1.3h2.5a.6.6 0 1 0 0-1.2H46v-1.3h1.7c.7 0 1.3-.3 1.8-.7l3.8-3.9a1.8 1.8 0 0 0 2.2-.3 1.8 1.8 0 0 0 0-2.6 1.8 1.8 0 0 0-2.6 0 1.8 1.8 0 0 0-.4 2l-3.8 4c-.3.2-.6.3-1 .3H46v-1.3a3 3 0 0 0-3.1-3h-1.3v-5.3a1.8 1.8 0 1 0-1.2 0V26h-1.3v-2.5a.6.6 0 1 0-1.2 0V26h-1.3v-9.4a.6.6 0 1 0-1.2 0V26h-1.3v-2.5a.6.6 0 1 0-1.2 0V26h-1.3v-1.7c0-.7-.3-1.3-.7-1.8L27 18.7a1.8 1.8 0 1 0-.8.8l3.8 3.8c.3.3.4.6.4 1V26h-1.3l-.8.1a.6.6 0 0 0 .3 1.2l.5-.1H43c1 0 2 .9 2 2v13.7l-.2.5a.6.6 0 1 0 1.2.3v-2.1h5.3a1.8 1.8 0 1 0 0-1.2H46v-1.3h2.5a.6.6 0 0 0 0-1.2H46v-1.3h9.4a.6.6 0 1 0 0-1.2ZM53.7 25a.7.7 0 0 1 1 0 .7.7 0 0 1 0 1 .7.7 0 0 1-1 0 .7.7 0 0 1 0-1Zm-28.8-6.6a.7.7 0 1 0 1-1 .7.7 0 0 0-1 1ZM41 19.8a.7.7 0 1 1 0-1.4.7.7 0 0 1 0 1.4ZM53.6 41a.7.7 0 1 0-1.4 0 .7.7 0 0 0 1.4 0ZM47.9 53c-.5-.6-1.4-.7-2-.4l-4-3.8c-.2-.3-.3-.6-.3-1V46h1.3l.8-.1a.6.6 0 0 0-.3-1.2 2 2 0 0 1-.5.1H29c-1 0-2-.9-2-2V29.2l.2-.5a.6.6 0 0 0-1.2-.3v2.1h-5.3a1.8 1.8 0 1 0 0 1.2H26v1.3h-2.5a.6.6 0 1 0 0 1.2H26v1.3h-9.4a.6.6 0 1 0 0 1.2H26v1.3h-2.5a.6.6 0 1 0 0 1.2H26v1.3h-1.7c-.7 0-1.3.3-1.8.7L18.7 45a1.8 1.8 0 0 0-2.2.3 1.8 1.8 0 0 0 0 2.6 1.8 1.8 0 0 0 2.6 0 1.8 1.8 0 0 0 .4-2l3.8-4c.3-.2.6-.3 1-.3H26v1.3a3 3 0 0 0 3.1 3h1.3v5.3a1.8 1.8 0 1 0 1.2 0V46h1.3v2.5a.6.6 0 0 0 1.2 0V46h1.3v9.4a.6.6 0 1 0 1.2 0V46h1.3v2.5a.6.6 0 1 0 1.2 0V46h1.3v1.7c0 .7.3 1.3.7 1.8l3.9 3.8a1.8 1.8 0 1 0 3-.4ZM19.1 31.7a.7.7 0 1 1 0-1.4.7.7 0 0 1 0 1.4Zm-1.3 15.6a.7.7 0 0 0 .7-.7.7.7 0 0 0-.7-.6.7.7 0 0 0-.6.6.7.7 0 0 0 .6.7ZM31.7 53a.7.7 0 1 1-1.4 0 .7.7 0 0 1 1.4 0Zm14.5 1.7a.7.7 0 1 0 1-1 .7.7 0 0 0-1 1Zm-4-20.2c0-1.2-.9-2.3-2.1-2.6v-.5c0-1.2-1-2.1-2.3-2.1-.7 0-1.4.2-1.8.7-.4-.5-1-.7-1.8-.7-1.3 0-2.3 1-2.3 2.1v.5a2.8 2.8 0 0 0-2.1 2.6c0 .6.2 1.2.6 1.7a2.9 2.9 0 0 0 .8 4.3c0 1.3 1.2 2.4 2.7 2.4.8 0 1.6-.3 2.1-.9.5.6 1.3 1 2.1 1 1.4 0 2.6-1 2.7-2.4.9-.5 1.4-1.4 1.4-2.3 0-.7-.3-1.4-.8-1.9.5-.5.8-1.2.8-1.9Zm-2 2.4c.5.3.9.8.9 1.4 0 .4-.2.8-.6 1-.3-.5-.8-1-1.5-1.1a.6.6 0 0 0-.4 1c.6.3 1 .7 1 1.3 0 .7-.6 1.3-1.5 1.3-.8 0-1.5-.6-1.5-1.3v-3.8c0-.7.7-1.3 1.5-1.3a.6.6 0 1 0 0-1.1c-.6 0-1 .1-1.5.4v-.8a.6.6 0 0 0-1.2 0v3.3l-.6-.3a.6.6 0 1 0-.4 1.1c.6.2 1 .7 1 1.2v1.3c0 .7-.7 1.3-1.5 1.3-.9 0-1.5-.6-1.5-1.3 0-.3 0-.6.3-.9a.6.6 0 1 0-.8-.8l-.4.5c-.3-.4-.6-.8-.6-1.3 0-.9.7-1.7 1.7-1.9a.6.6 0 1 0-.3-1.1c-.3 0-.7.2-1 .4-.2-.2-.4-.5-.4-.9 0-.8.9-1.6 2-1.6a.6.6 0 0 0 .4-.9.9.9 0 0 1-.2-.6c0-.5.5-1 1.1-1 .7 0 1.2.5 1.2 1a.6.6 0 0 0 1.2 0c0-.5.5-1 1.2-1 .6 0 1.1.5 1.1 1v.4c-.4 0-.7 0-1 .2a.6.6 0 0 0 .4 1h.9c1 0 1.9.7 1.9 1.5 0 .6-.4 1.1-1 1.4a.6.6 0 0 0 0 1Z" fill="#fff"/><defs><linearGradient id="a" x1="-35.8" y1="35.8" x2="35.8" y2="107.5" gradientUnits="userSpaceOnUse"><stop stop-color="#33D35E"/><stop offset="1" stop-color="#2AB6D9"/></linearGradient></defs></svg>