<svg width="72" height="72" fill="none" xmlns="http://www.w3.org/2000/svg"><circle cx="36" cy="36" r="36" fill="url(#a)"/><path fill-rule="evenodd" clip-rule="evenodd" d="M47.7 19v7.7c5.3.2 9.4 4.3 9.4 9.3 0 5-4.1 9-9.4 9.3V53c0 1.7-1.4 3.1-3 3.1H27c-1.7 0-3-1.4-3-3v-7.3a.6.6 0 1 1 1 0v3.5h21.5v-3.9c-1 0-2-.2-3-.5l-4.3 2.4c-.5.2-1-.3-.9-.8l1.4-3.6H33l-.4-.1L28 38a.6.6 0 0 1-.1-.4V24.7c0-.3.2-.6.6-.6h15c.3 0 .6.3.6.6v2.4c.8-.2 1.7-.4 2.6-.4v-4.5H25.2v20.7a.6.6 0 1 1-1.2 0V19c0-1.7 1.4-3.1 3.1-3.1h17.5c1.7 0 3.1 1.4 3.1 3Zm-3 35.8c1 0 1.9-.8 1.9-1.9v-2.5H25.2v2.5c0 1 .8 2 1.9 2h17.5ZM25.1 21v-2c0-1 .8-1.8 1.9-1.8h17.5c1 0 2 .8 2 1.9v2H25.2Zm4.6 17.2 2.7 2.6v-2.6h-2.7Zm3.8 3.5v-4.1c0-.4-.2-.6-.6-.6h-4V25.3h13.8v2.3l-1.7 1H37.7a.6.6 0 1 0 0 1.1h2c-.5.6-1 1.2-1.4 2h-6.8a.6.6 0 1 0 0 1.1h6.2a8.8 8.8 0 0 0 1.5 8.9h-5.6Zm10.2 1.9c1 .4 2.2.6 3.3.6 4.9 0 8.8-3.7 8.8-8.2 0-4.5-4-8.2-8.8-8.2-4.8 0-8.8 3.7-8.8 8.2 0 2.2 1 4.3 2.7 5.8.2.2.2.5.1.7l-1 2.9 3.2-1.8h.5Zm-9.2-25.1h2.5a.6.6 0 1 1 0 1.2h-2.5a.6.6 0 1 1 0-1.2Zm2.5 32.6h-2.5c-.3 0-.6.2-.6.6v1.8c0 .4.3.6.6.6h2.5c.3 0 .6-.2.6-.6v-1.8c0-.4-.3-.6-.6-.6Zm-.6 1.8h-1.3v-.7h1.3v.7Zm-1.3-24.4h-3.7a.6.6 0 1 0 0 1.2h3.7a.6.6 0 1 0 0-1.2Zm-3.7 6.3h4.4a.6.6 0 1 1 0 1.2h-4.4a.6.6 0 1 1 0-1.2Zm18.7-.7a.6.6 0 1 1-1.1 0v-.6c0-.7-.6-1.3-1.3-1.3h-1a1.6 1.6 0 0 0 0 3.2h.7a2.8 2.8 0 0 1 .2 5.6v1.3a.6.6 0 1 1-1.1 0V41a2.5 2.5 0 0 1-2.6-2.5.6.6 0 1 1 1.2 0c0 .7.6 1.3 1.3 1.3h1a1.6 1.6 0 0 0 0-3.2h-.7a2.8 2.8 0 0 1-.2-5.6v-1.3a.6.6 0 1 1 1.1 0V31c1.4 0 2.5 1.1 2.5 2.5v.6Z" fill="#fff"/><defs><linearGradient id="a" x1="-35.8" y1="35.8" x2="35.8" y2="107.5" gradientUnits="userSpaceOnUse"><stop stop-color="#33D35E"/><stop offset="1" stop-color="#2AB6D9"/></linearGradient></defs></svg>