<svg width="72" height="72" fill="none" xmlns="http://www.w3.org/2000/svg"><circle cx="36" cy="36" r="36" fill="url(#a)"/><path fill-rule="evenodd" clip-rule="evenodd" d="M49.3 23v-3.7c0-1.8-1.5-3.3-3.3-3.3H19.3a3.3 3.3 0 0 0-3.3 3.3V34c0 1.7 1.3 3.1 3 3.3l2.5 6.5a3.3 3.3 0 0 0 4.3 1.9l15.6-6c-1 2.8-.7 6 .9 8.5l.4.6v6.5c0 .4.3.7.6.7h12c.4 0 .7-.3.7-.7v-22c0-2.3-1-4.5-2.6-6.1l-4-4.1Zm0 4 2 5.3a2 2 0 0 1-1.1 2.6l-1.2.4c.2-.4.3-.9.3-1.3v-7Zm-32-7.7V34c0 1 1 2 2 2h20L36.7 33a3.6 3.6 0 0 1 5.1-4.9l6.1 6.1v-15a2 2 0 0 0-2-2H19.4a2 2 0 0 0-2 2Zm8.6 18L21 39.1l-.7-1.8H26Zm-3.2 6a2 2 0 0 0 2.6 1.2l16-6.2-.8-1h-11l-7.9 3 1.1 3ZM44 54.6v-5.3h10.6v5.3H44Zm-.3-6.6h11V33.3c0-2-.8-3.8-2.2-5.2L50.3 26l2.3 5.8c.6 1.7-.2 3.7-2 4.3l-.6.3 2.5 2.4-1 1L41 29.2a2.2 2.2 0 0 0-3.2 3l5.4 6c.2.2.3.5.1.8a8.3 8.3 0 0 0 .2 8.5l.3.5ZM25.3 23.6c0 1-.7 1.7-1.7 1.7h-3.2c-1 0-1.7-.7-1.7-1.7v-3.2c0-1 .7-1.7 1.7-1.7h3.2c1 0 1.7.7 1.7 1.7v3.2Zm-5.3-1v1c0 .2.2.4.4.4h3.2c.2 0 .4-.2.4-.4v-1h-1.3v-1.3H24v-.9c0-.2-.2-.4-.4-.4h-3.2c-.2 0-.4.2-.4.4v1h1.3v1.3H20Zm2 4.7h-2.7v1.4H22v-1.4Zm-2.7 4H22v1.4h-2.7v-1.4Zm14.7 0h-2.7v1.4H34v-1.4Zm-10.7-4H26v1.4h-2.7v-1.4Zm6.7 0h-2.7v1.4H30v-1.4Zm1.3 0H34v1.4h-2.7v-1.4Zm14-8H44v2h1.3v-2Zm-4 0h1.4v2h-1.4v-2Zm-1.3 0h-1.3v2H40v-2Zm-4 0h1.3v2H36v-2ZM46.7 52v-1.4h-1.4V52h1.4Z" fill="#fff"/><defs><linearGradient id="a" x1="-35.8" y1="35.8" x2="35.8" y2="107.5" gradientUnits="userSpaceOnUse"><stop stop-color="#33D35E"/><stop offset="1" stop-color="#2AB6D9"/></linearGradient></defs></svg>