<svg width="72" height="72" fill="none" xmlns="http://www.w3.org/2000/svg"><circle cx="36" cy="36" r="36" fill="url(#a)"/><path fill-rule="evenodd" clip-rule="evenodd" d="M52.1 39.2c0 1.6-.7 3-1.9 4 3.3.6 5.8 3.5 5.8 7V56H41.2v-7.4c0-.6-.5-1-1-1h-1v1.2l-1.8.4-.2.6 1 1.6-3.5 3.5-1.6-1-.7.3L32 56H27l-.4-1.8-.7-.3-1.6 1-3.4-3.5 1-1.6-.3-.6-1.8-.4v-5l1.8-.4.2-.6-1-1.6.8-.7h-1.2c-1 0-2-.9-2-2v-1.2c0-1 1-2 2-2h1.3c.4 0 .7-.2.7-.6v-.6H16v-3.3c0-3 1.9-5.5 4.5-6.6a4.5 4.5 0 1 1 5.2 0c1.7.7 3 2 3.8 3.7.8-1.7 2.2-3 4-3.7a4.5 4.5 0 1 1 5 0c2.7 1 4.6 3.6 4.6 6.6v3.3h-6.5v.6c0 .4.3.7.7.7h1.3c1 0 2 .8 2 1.9v1.3c0 1-1 2-2 2h-1.2l.7.6-1 1.6a3.3 3.3 0 0 1 .2.3h6.3a5.1 5.1 0 0 1 3.4-9c2.8 0 5.1 2.3 5.1 5.1ZM47 35.4a3.9 3.9 0 1 0 0 7.7 3.9 3.9 0 0 0 0-7.7ZM32.8 20.5a3.2 3.2 0 1 1 6.4 0 3.2 3.2 0 0 1-6.4 0Zm9 10.3a5.8 5.8 0 0 0-11.6 0v2h2v-5.2h1.2v5.2h5.2v-5.2h1.3v5.2h2v-2Zm-22-10.3a3.2 3.2 0 1 1 6.5 0 3.2 3.2 0 0 1-6.4 0Zm3.3 4.5a5.8 5.8 0 0 0-5.8 5.8v2h2v-5.2h1.2v5.2h5.2v-5.2H27v5.2h1.9v-2c0-3.2-2.6-5.8-5.8-5.8Zm-2.6 14.2a.6.6 0 0 1-.6-.6v-1.3c0-.4.3-.7.6-.7h1.3c1 0 2-.8 2-1.9v-.6h11.6v.6c0 1 .8 2 1.9 2h1.3c.3 0 .6.2.6.6v1.3c0 .3-.3.6-.6.6H36l-1.4-1.4-1.6 1-.7-.4-.4-1.8H27l-.4 1.8-.7.3-1.6-1-1.4 1.5h-2.5Zm16 9 1.4-.4v-.2h-2.7a5.8 5.8 0 1 1-.8-4.5h1.5l-.2-.4.8-1.3-2-2-1.4.8-.3-.2a7 7 0 0 0-1.1-.4l-.3-.2L31 38H28l-.4 1.5-.3.2a7 7 0 0 0-1.1.4l-.3.2-1.4-.8-2 2 .8 1.3-.1.4a7 7 0 0 0-.5 1l-.1.4-1.5.4v2.9l1.5.3v.4l.5 1 .2.4-.8 1.3 2 2 1.4-.7.3.1 1.1.5.3.1.4 1.5H31l.3-1.5.4-.1a7 7 0 0 0 1.1-.5l.3-.1 1.4.8 2-2-.8-1.4.1-.3.5-1.1.1-.4Zm-5.4-.7a2 2 0 1 1-1.4-3.1 2.2 2.2 0 0 0 1.4 3ZM29.5 43c.5 0 .9 0 1.3.2l1-.2h.9a4.5 4.5 0 1 0 1.2 4.5h-1.4a3.2 3.2 0 1 1-3-4.5Zm25.2 11.6h-2v-7h-1.2v7h-9v-6.1c0-1.3-1-2.3-2.3-2.3h-8.4a1 1 0 0 1 0-2H49c3.2 0 5.8 2.7 5.8 5.9v4.5ZM56 28.3c0-2.5-2-4.6-4.5-4.6h-2.6c-2.5 0-4.5 2-4.5 4.6v4.5h7c2.6 0 4.6-2 4.6-4.5Zm-10.3 0c0-1.8 1.4-3.3 3.2-3.3h2.6a3.2 3.2 0 0 1 0 6.5h-5.8v-3.2Zm1.3.6h1.3v1.3H47v-1.3Zm3.8 0h-1.3v1.3h1.3v-1.3Zm1.3 0h1.3v1.3h-1.3v-1.3Zm1.3-2.6H47v1.3h6.4v-1.3Z" fill="#fff"/><defs><linearGradient id="a" x1="-35.8" y1="35.8" x2="35.8" y2="107.5" gradientUnits="userSpaceOnUse"><stop stop-color="#33D35E"/><stop offset="1" stop-color="#2AB6D9"/></linearGradient></defs></svg>